<?xml version="1.0" encoding="utf-8"?>
<svg xmlns="http://www.w3.org/2000/svg" height="128" width="128" viewBox="0 0 128 128">
  <g>
    <path id="path1" transform="rotate(0,64,64) translate(14.3957477211952,5) scale(3.6875,3.6875)  " fill="#000000" d="M8.0269803,19.821014L12.050969,19.821014C11.846013,20.39801,11.716985,20.996002,11.665959,21.604004L8.0269803,21.604004z M18.612007,18.911987C17.922003,18.924988 17.230963,19.153992 16.646978,19.613007 15.224005,20.734009 14.977972,22.794006 16.097967,24.217987 17.219,25.640991 19.278999,25.886993 20.70301,24.765991 22.125008,23.64801 22.370979,21.585999 21.250008,20.161987 20.622017,19.362 19.693977,18.934998 18.74897,18.912994 18.703987,18.911011 18.657967,18.911011 18.612007,18.911987z M18.568001,16.647003C18.646004,16.644989 18.724007,16.644989 18.800972,16.647003 20.398018,16.68399 21.966988,17.40799 23.031013,18.761993 24.594004,20.748016 24.579965,23.464996 23.177986,25.420013L26.904001,30.154999 24.550974,32 20.844002,27.286987C18.596016,28.243988 15.899969,27.631012 14.315985,25.618011 12.424016,23.210999 12.83997,19.72699 15.245977,17.833008 16.234014,17.056 17.40296,16.667999 18.568001,16.647003z M8.0269803,15.363007L17.024969,15.363007C16.05097,15.596008 15.128973,16.016998 14.317999,16.653992 14.120976,16.80899 13.935002,16.975006 13.760014,17.144989L8.0269803,17.144989z M6.3460106,3.2179871L15.334967,3.2179871 17.232977,5.2179871 17.237005,5.2179871 17.286016,5.269989 17.307012,5.269989 18.857979,6.9140015 17.377996,5.3510132 17.363958,5.3510132 22.901009,11.17099 22.901009,11.200989 23.958017,12.31601 23.958017,17.548004C23.347969,16.852997,22.627998,16.291016,21.82502,15.888L21.82502,12.63501 18.917,12.713989C15.523992,13.085999,15.338018,10.007996,15.338018,10.007996L15.19599,5.3510132 6.3460106,5.3510132C6.0529808,5.3510132,5.8129906,5.5910034,5.8129906,5.8850098L5.8129906,25.860992C5.8129906,26.154999,6.0529808,26.394989,6.3460106,26.394989L13.031987,26.394989C13.068974,26.444 13.09998,26.496002 13.138982,26.54599 13.810979,27.398987 14.651007,28.071991 15.596014,28.529999L6.3460106,28.529999C4.8729877,28.529999,3.6779799,27.334015,3.6779799,25.860992L3.6779799,5.8850098C3.6779799,4.4129944,4.8729877,3.2179871,6.3460106,3.2179871z M0,0L2.1049813,0 11.953984,0 11.953984,1.8770142 2.1049813,1.8770142 2.1049813,21.834015 0,21.834015 0,1.8770142z" />
  </g>
</svg>