<?xml version="1.0" encoding="utf-8"?>
<svg xmlns="http://www.w3.org/2000/svg" height="128" width="128" viewBox="0 0 128 128">
  <g>
    <path id="path1" transform="rotate(0,64,64) translate(3.32000350952146,0) scale(4,4)  " fill="#000000" d="M10.55598,26.099998L30.339998,26.099998 30.339998,30.257004 10.55598,30.257004z M3.8219642,24.356003C5.9320132,24.356003 7.6439898,26.066002 7.6439898,28.178001 7.6439898,30.289001 5.9320132,32 3.8219642,32 1.7110002,32 -1.8831997E-07,30.289001 0,28.178001 -1.8831997E-07,26.066002 1.7110002,24.356003 3.8219642,24.356003z M10.55598,13.922005L30.339998,13.922005 30.339998,18.079002 10.55598,18.079002z M3.8219642,12.177002C5.9320132,12.177002 7.6439898,13.889 7.6439898,16 7.6439898,18.112 5.9320132,19.823006 3.8219642,19.823006 1.7110002,19.823006 -1.8831997E-07,18.112 0,16 -1.8831997E-07,13.889 1.7110002,12.177002 3.8219642,12.177002z M10.55598,1.7450027L30.339998,1.7450027 30.339998,5.9020004 10.55598,5.9020004z M3.8219642,0C5.9320132,0 7.6439898,1.7109985 7.6439898,3.8219986 7.6439898,5.9329987 5.9320132,7.6440048 3.8219642,7.6440048 1.7110002,7.6440048 -1.8831997E-07,5.9329987 0,3.8219986 -1.8831997E-07,1.7109985 1.7110002,0 3.8219642,0z" />
  </g>
</svg>