<?xml version="1.0" encoding="utf-8"?>
<svg xmlns="http://www.w3.org/2000/svg" height="128" width="128" viewBox="0 0 128 128">
  <g>
    <path id="path1" transform="rotate(0,64,64) translate(4.55400085449216,0) scale(4,4)  " fill="#000000" d="M28.077005,13.254987L29.722999,15.794998 12.628988,26.877986 10.982993,24.338004 10.984,24.338004 7.3229923,18.694019 9.8590006,17.048997 13.520009,22.693015z M10.902,0L22.264997,0C24.128978,0,25.639995,1.5099807,25.639995,3.375003L25.639995,13.246015 22.939985,14.996993 22.939985,3.375003C22.939985,3.0049773,22.637006,2.6999842,22.264997,2.6999842L11.077994,2.6999842 10.896995,8.5849994C10.896995,8.5849994,10.66201,12.474987,6.3730111,12.004986L2.6979958,11.909985 2.6979958,28.630002C2.6979958,28.999997,3.0010046,29.30499,3.3730137,29.30499L22.264997,29.30499C22.637006,29.30499,22.939985,28.999997,22.939985,28.630002L22.939985,21.779012 25.639995,20.02901 25.639995,28.630002C25.639995,30.48999,24.128978,32.000001,22.264997,32.000001L3.3730137,32.000001C1.5100084,32.000001,-1.652943E-07,30.48999,0,28.630002L0,11.504985 1.3359972,10.095011 1.3370042,10.055003 8.3380064,2.6999842 8.318994,2.6999842 6.4470162,4.6749924 8.4080138,2.5950037 8.4359984,2.5950037 8.4980091,2.5300013 8.5039906,2.5300013z" />
  </g>
</svg>