<?xml version="1.0" encoding="utf-8"?>
<svg xmlns="http://www.w3.org/2000/svg" height="128" width="128" viewBox="0 0 128 128">
  <g>
    <path id="path1" transform="rotate(0,64,64) translate(5,31.3158415555954) scale(3.6875,3.6875)  " fill="#000000" d="M12.799988,7.2999696L15.099976,14.499933 15.199982,14.799935C15.399994,15.499929 15.299988,16.399934 14.699982,16.999923 13.899994,17.899926 12.5,17.999917 11.599976,17.099927 11,16.599931 10.799988,15.799931 11,15.099936z M16,0C24.799988,5.6612862E-08,32,7.199964,32,15.999927L26.899994,15.999927C25.699982,9.4999561 20.799988,4.5999851 13.899994,4.5999851 7,4.5999851 1.2999878,9.4999561 0.099975586,15.999927L0,15.999927C0,7.199964,7.1999817,5.6612862E-08,16,0z" />
  </g>
</svg>