<?xml version="1.0" encoding="UTF-8" standalone="no"?>
<svg
   xmlns:dc="http://purl.org/dc/elements/1.1/"
   xmlns:cc="http://creativecommons.org/ns#"
   xmlns:rdf="http://www.w3.org/1999/02/22-rdf-syntax-ns#"
   xmlns:svg="http://www.w3.org/2000/svg"
   xmlns="http://www.w3.org/2000/svg"
   id="svg27"
   style="fill-rule:evenodd;clip-rule:evenodd;stroke-linejoin:round;stroke-miterlimit:1.41421;"
   xml:space="preserve"
   version="1.1"
   height="200px"
   width="400px"><metadata
   id="metadata33"><rdf:RDF><cc:Work
       rdf:about=""><dc:format>image/svg+xml</dc:format><dc:type
         rdf:resource="http://purl.org/dc/dcmitype/StillImage" /><dc:title></dc:title></cc:Work></rdf:RDF></metadata><defs
   id="defs31">
                </defs>
    <g
   id="g25">
        <g
   id="g6">
                <path
   d="M 14.6424,58.0073 C 25.3079,56.893 57.035,36.1963 77.3274,44.5884 76.8193,60.4478 59.5221,68.9543 67.2086,90.7401 21.8766,84.6682 29.1496,131.15 31.0066,143.967 c 2.1799,2.224 33.0587,-20.001 43.191,-19.265 -9.1903,11.309 -42.8951,38.208 -53.2769,39.804 -6.1222,-16.854 5.2534,-51.694 -3.1951,-80.0044 25.9325,12.5345 45.4842,-7.5882 39.557,-33.4641 -7.9946,-1.6198 -30.3154,12.9326 -42.6402,6.9698 z"
   style="fill:#000000"
   id="path2" />
                <path
   d="m 104.558,24.6017 c 5.887,0.5675 5.692,4.3587 13.552,3.6328 -5.446,28.1548 -15.207,26.9982 -20.129,42.6099 14.582,1.5206 31.348,-12.6099 56.339,-9.539 -2.818,10.0845 -14.603,8.422 -26.403,9.539 1.504,20.6531 -1.553,34.7976 -9.807,56.9766 3.569,23 46.096,30.19 59.055,34.084 -3.305,9.921 -28.905,10.184 -42.743,9.083 -11.584,-11.552 -13.975,-17.465 -23.807,-29.526 -14.1768,6.772 -24.1587,17.923 -52.8982,20.443 6.4932,-6.11 33.3591,-13.713 43.6102,-30.514 -3.3889,-15.669 -26.1735,-22.993 -20.5525,-29.577 15.4276,-4.7039 17.9051,17.309 23.7835,19.112 11.097,-4.513 9.426,-27.088 9.805,-42.6627 C 98.9688,73.6976 88.2514,81.2091 80.7745,87.4585 82.1047,75.7208 100.01,53.7816 104.558,24.6017 Z"
   style="fill:#000000"
   id="path4" />
            </g><path
   id="path8"
   style="fill:#000000"
   d="m 270.436,37.8211 c -8.079,3.21 -19.912,-10.8715 -19.396,-16.7204 12.564,-9.8127 24.998,5.0107 19.396,16.7204" /><path
   id="path10"
   style="fill:#000000"
   d="m 310.797,7.99967 c 7.221,0.99109 18.194,5.25603 16.473,13.37413 -9.743,0.8721 -19.388,14.8011 -29.845,12.8623 2.018,-5.4395 10.744,-10.329 13.372,-26.23643 z" /><path
   style="fill:#000000"
   d="m 319.14844,38.341797 c -26.22138,0.203635 -47.57885,8.276 -71.40235,6.603515 -2.051,14.944401 40.17158,-3.165162 32.51758,19.585938 -0.88,6.4725 -27.10358,2.053347 -32.51758,4.185547 -2.709,12.5348 23.26958,0.906672 32.51758,7.763672 -0.37,8.5495 1.828,7.383094 0,14.308593 -21.464,0.657701 -42.18397,-0.287537 -49.41797,7.226563 6.66,3.144805 14.88964,-0.407266 23.05664,3.865235 1.077,11.912 7.35518,15.43009 6.57618,22.37109 -11.599,3.759 -37.19775,0.66793 -52.46875,7.29493 22.828,6.649 144.07711,-8.2376 166.53711,-10.3086 -19.52,-13.441 -45.2048,1.46209 -60.2168,-3.1289 10.158,-14.331 5.91675,-19.605411 5.96875,-23.316411 7.484,-4.4571 20.70731,0.23525 23.82031,-7.15625 -18.56,-11.3991 -40.38205,8.159047 -53.49805,-2.564453 1.948,-7.9566 3.8731,-5.961394 3.6211,-13.621094 10.31,-0.8771 26.11237,-9.41e-4 30.10937,-9.556641 -8.344,-4.6593 -20.40517,3.794663 -29.07617,0.726563 -3.505,-7.0377 -1.4572,-9.803178 -1.0332,-14.267578 9.222,-0.4949 26.47698,2.769365 33.20898,-9.802735 -2.82478,-0.166856 -5.59018,-0.23005 -8.30273,-0.208984 z m -12.02149,56.503906 c 2.512,12.282597 -2.21801,13.577607 -3.04101,26.349607 -13.916,-0.388 -23.75133,-0.59236 -33.23633,3.05664 -1.304,-10.646 0.74231,-16.62498 -9.42969,-23.08398 4.353,-3.870701 35.18003,-6.177967 45.70703,-6.322267 z"
   id="path12" /><path
   id="path18"
   d="M 302.37695 138.29297 C 282.06243 138.22568 259.47805 142.73438 244.62305 144.85938 C 256.60805 155.32238 249.68498 153.2183 257.45898 184.4043 C 281.07698 178.1333 299.32333 186.30436 320.98633 174.06836 C 317.29833 156.43136 334.48803 158.56938 334.33203 144.85938 C 325.93691 140.02113 314.56567 138.33334 302.37695 138.29297 z M 298.12109 144.87109 C 302.50145 144.91145 307.66542 145.67975 314.20117 147.78125 C 311.04917 156.95725 312.93147 158.25203 307.85547 171.20703 C 285.11447 169.76103 280.99211 177.50736 264.03711 174.06836 C 267.19511 160.38036 258.90511 155.11925 264.03711 147.78125 C 278.89761 151.1765 284.98002 144.75002 298.12109 144.87109 z"
   style="fill:#000000" />
    </g>
</svg>