<?xml version="1.0" encoding="utf-8"?>
<svg xmlns="http://www.w3.org/2000/svg" height="128" width="128" viewBox="0 0 128 128">
  <g>
    <path id="path1" transform="rotate(0,64,64) translate(24.5437471866608,5) scale(3.6875,3.6875)  " fill="#000000" d="M10.7,4.5C7.4999914,4.5 4.9000191,7.3000183 4.9000191,10.800018 4.9000191,14.300018 7.4999914,17.100006 10.7,17.100006 13.900009,17.100006 16.499982,14.300018 16.499982,10.800018 16.599957,7.3000183 13.999984,4.5 10.7,4.5z M10.7,0C16.599957,0 21.400001,5.2000122 21.400001,11.5 21.400001,17.899994 10.7,32 10.7,32 10.7,32 5.5881173E-08,17.899994 0,11.5 5.5881173E-08,5.2000122 4.7999825,0 10.7,0z" />
  </g>
</svg>