<?xml version="1.0" encoding="utf-8"?>
<svg xmlns="http://www.w3.org/2000/svg" height="128" width="128" viewBox="0 0 128 128">
  <g>
    <path id="path1" transform="rotate(0,64,64) translate(7.21253318861324,5) scale(3.68750021979214,3.68750021979214)  " fill="#000000" d="M5.3999968,4C5.7999964,4 6.0999961,4.1999998 6.3999963,4.3999996 6.8999958,5 6.8999958,5.8999996 6.2999964,6.3999996 5.7999964,6.8999996 4.8999968,6.8999996 4.3999977,6.2999997 3.8999977,5.6999998 3.8999977,4.8999996 4.4999971,4.3999996 4.6999969,4.0999994 5.0999966,4 5.3999968,4z M5.3999968,3C4.7999973,3 4.1999969,3.1999998 3.7999973,3.5999994 2.7999983,4.5 2.6999979,5.9999995 3.5999975,6.9999995 4.4999971,7.9999995 5.9999962,7.9999995 6.9999957,7.1999998 7.9999952,6.2999997 7.9999952,4.7999992 7.0999956,3.7999992 6.699996,3.1999998 5.9999962,3 5.3999968,3z M5.6999965,0L12.799992,1 30.799981,20.599999 18.299989,31.999999 0.30000019,12.4 0,5.2999992z" />
  </g>
</svg>